<svg width="124" height="80" viewBox="0 0 124 80" fill="none" xmlns="http://www.w3.org/2000/svg">
<path d="M3.80469 3.85672V46.9262C36.5575 53.9876 61.047 62.0506 91.2457 74.4706C93.5995 48.8293 102.965 23.5885 116.737 3.80664L3.80469 3.85672Z" fill="#FFD200"/>
<path d="M26.5929 26.9435H22.7868L24.4394 19.4814C24.4895 19.0808 24.5897 18.6801 24.5897 18.2795C24.5897 17.0775 23.6381 16.8271 23.1373 16.8271C22.5364 16.8271 21.9855 17.1276 21.5848 17.5283C20.9838 18.1292 20.6333 19.1309 20.433 20.1826L18.9305 26.9435H15.1244L18.0291 14.273H21.8352L21.4847 15.8255C22.1357 15.1244 23.2375 13.9725 25.1906 13.9725C27.0937 13.9725 28.6963 15.1244 28.6963 17.2779C28.6963 17.7286 28.5961 18.2294 28.546 18.6801L26.5929 26.9435ZM37.4103 10.6672L36.6091 14.1729H38.8126L38.3118 16.4766H36.1082L34.9063 21.7851C34.8562 22.1357 34.7561 22.6365 34.7561 22.8869C34.7561 23.9386 35.5073 23.9887 36.2084 24.0388H36.9596L36.3086 26.9935C35.6074 27.0937 34.8562 27.1939 34.105 27.1939C33.454 27.1939 32.853 27.1438 32.3021 26.8934C31.4006 26.5428 30.6995 25.7916 30.6995 24.3893C30.6995 23.9386 30.7997 23.4879 30.8498 23.0372L32.3021 16.5267H30.5994L31.1002 14.2229H32.8029L33.6042 10.7173H37.4103V10.6672ZM51.2326 23.6381C50.3813 24.9903 48.979 27.3441 44.9725 27.3441C40.5154 27.3441 38.7625 24.1389 38.7625 21.2342C38.7625 18.2294 40.916 13.8223 45.9742 13.8223C48.9289 13.8223 51.8336 15.4249 51.8336 19.6317C51.8336 20.1825 51.7835 20.7334 51.7334 21.2843H42.4685C42.4685 22.2859 42.4685 22.8368 42.8691 23.3877C43.3199 24.0388 44.0711 24.3893 44.9225 24.3893C46.9257 24.3893 47.6769 23.1373 48.0275 22.4863L51.2326 23.6381ZM48.4281 18.8804C48.4281 18.4297 48.4281 17.378 47.3263 16.8271C46.9257 16.6268 46.475 16.4766 45.9742 16.4766C44.0711 16.4766 43.37 17.979 42.9693 18.8804H48.4281ZM59.1454 16.126C59.3457 15.8756 59.546 15.6252 59.7965 15.4249C60.4976 14.7237 61.6494 14.0727 62.9515 14.0727C63.1519 14.0727 63.4023 14.0727 63.6527 14.0727L62.9015 17.378C61.7997 17.4281 60.5477 17.4782 59.6462 18.1793C58.5444 18.9305 58.294 20.1325 58.0436 21.1842L56.7415 26.9435H52.9354L55.8401 14.273H59.5961L59.1454 16.126ZM35.1567 33.0533L28.1955 45.7237H24.4394L24.3393 37.9111L20.433 45.7237H16.6268L15.8255 33.0533H19.3312L19.5315 41.3166L23.538 33.0533H27.0937L27.294 41.3166L31.2003 33.0533H35.1567ZM46.9257 42.4685C46.0743 43.8207 44.6721 46.1745 40.6656 46.1745C36.2084 46.1745 34.4556 42.9693 34.4556 40.0646C34.4556 37.0598 36.6091 32.6527 41.6672 32.6527C44.622 32.6527 47.5267 34.2552 47.5267 38.462C47.5267 39.0129 47.4766 39.5638 47.4265 40.1147H38.1616C38.1616 41.1163 38.1616 41.6672 38.5622 42.2181C39.0129 42.8691 39.7641 43.2197 40.6155 43.2197C42.6187 43.2197 43.37 41.9677 43.7205 41.3166L46.9257 42.4685ZM44.1212 37.7108C44.1212 37.2601 44.1212 36.2084 43.0194 35.6575C42.6187 35.4572 42.168 35.3069 41.6672 35.3069C39.7641 35.3069 39.063 36.8094 38.6624 37.7108H44.1212ZM56.0905 29.4976L55.2892 33.0032H57.4927L56.9919 35.3069H54.7884L53.5864 40.6155C53.5364 40.9661 53.4362 41.4669 53.4362 41.7173C53.4362 42.769 54.1874 42.8191 54.8885 42.8691H55.6397L54.9887 45.8239C54.2876 45.9241 53.5364 46.0242 52.7851 46.0242C52.1341 46.0242 51.5331 45.9741 50.9822 45.7237C50.0808 45.3732 49.4297 44.622 49.4297 43.2197C49.4297 42.769 49.5299 42.3182 49.58 41.8675L51.0323 35.357H49.3296L49.8304 33.0533H51.5331L52.3344 29.5477H56.0905V29.4976ZM65.105 29.4976L64.3037 33.0032H66.5073L66.0065 35.3069H63.8029L62.601 40.6155C62.5509 40.9661 62.4507 41.4669 62.4507 41.7173C62.4507 42.769 63.2019 42.8191 63.9031 42.8691H64.6543L64.0032 45.8239C63.3021 45.9241 62.5509 46.0242 61.7997 46.0242C61.1486 46.0242 60.5477 45.9741 59.9968 45.7237C59.0953 45.3732 58.4443 44.622 58.4443 43.2197C58.4443 42.769 58.5444 42.3182 58.5945 41.8675L60.0469 35.357H58.3441L58.8449 33.0533H60.5477L61.3489 29.5477H65.105V29.4976ZM78.9273 42.4685C78.0759 43.8207 76.6737 46.1745 72.6672 46.1745C68.21 46.1745 66.4572 42.9693 66.4572 40.0646C66.4572 37.0598 68.6107 32.6527 73.6688 32.6527C76.6236 32.6527 79.5283 34.2552 79.5283 38.462C79.5283 39.0129 79.4782 39.5638 79.4281 40.1147H70.1632C70.1632 41.1163 70.1632 41.6672 70.5638 42.2181C71.0145 42.8691 71.7658 43.2197 72.6171 43.2197C74.6204 43.2197 75.3716 41.9677 75.7221 41.3166L78.9273 42.4685ZM76.1228 37.7108C76.1228 37.2601 76.1228 36.2084 75.021 35.6575C74.6204 35.4572 74.1696 35.3069 73.6688 35.3069C71.7658 35.3069 71.0646 36.8094 70.664 37.7108H76.1228ZM92.0485 45.7738H88.2423L89.895 38.3118C89.9451 37.9111 90.0452 37.5105 90.0452 37.1099C90.0452 35.9079 89.0937 35.6575 88.5929 35.6575C87.9919 35.6575 87.441 35.958 87.0404 36.3586C86.4394 36.9596 86.0889 37.9612 85.8885 39.0129L84.336 45.7738H80.5299L83.4346 33.1034H87.2407L86.8901 34.6559C87.5412 33.9548 88.643 32.8029 90.5961 32.8029C92.4992 32.8029 94.1018 33.9548 94.1018 36.1082C94.1018 36.559 94.0016 37.0598 93.9515 37.5105L92.0485 45.7738ZM10.9176 14.273L8.01292 26.9935H11.8191L14.7237 14.273H10.9176ZM116.738 0.0500805H3.80614H0V3.85622V46.9257V49.9806L3.00485 50.6317C33.9548 57.2924 58.294 65.0048 89.7948 77.9758L94.5525 79.9289L95.0032 74.7706C97.2569 50.0808 106.121 25.6414 119.843 5.95961L124 0L116.738 0.0500805ZM91.2472 74.5202C61.0485 62.0501 36.559 54.0372 3.80614 46.9257V3.85622H13.2714L11.3683 12.2197H15.2246L17.1276 3.85622H116.788C102.916 23.6381 93.601 48.8287 91.2472 74.5202Z" fill="black"/>
</svg>
