<svg width="128" height="48" viewBox="0 0 128 48" fill="currentColor" xmlns="http://www.w3.org/2000/svg">
    <path fill-rule="evenodd" clip-rule="evenodd" d="M15.0164 0L8.14844 11.7598L21.5133 11.6684L15.0164 0Z"
          fill="#0072D3"/>
    <path fill-rule="evenodd" clip-rule="evenodd" d="M14.8518 23.2962L21.5078 11.6658L8.14844 11.7598L14.8518 23.2962Z"
          fill="#0094DD"/>
    <path fill-rule="evenodd" clip-rule="evenodd" d="M1.19922 23.3667L8.149 11.7598L14.8523 23.2962L1.19922 23.3667Z"
          fill="#00B6E6"/>
    <path fill-rule="evenodd" clip-rule="evenodd" d="M7.97277 35.1146L14.8523 23.2961L1.19922 23.3666L7.97277 35.1146Z"
          fill="#00D8F0"/>
    <path fill-rule="evenodd" clip-rule="evenodd" d="M17.4648 25.4543H31.4357L24.274 36.5595L17.4648 25.4543Z"
          fill="#0072D3"/>
    <path fill-rule="evenodd" clip-rule="evenodd" d="M38.1383 36.593L24.2734 36.5595L31.4352 25.4543L38.1383 36.593Z"
          fill="#0050C9"/>
    <path fill-rule="evenodd" clip-rule="evenodd" d="M31.2939 47.8767L24.2734 36.5596L38.1383 36.5931L31.2939 47.8767Z"
          fill="#0094DD"/>
    <path fill-rule="evenodd" clip-rule="evenodd" d="M31.4354 25.4569L24.3672 13.8765L38.269 14.1889L31.4354 25.4569Z"
          fill="#00D8F0"/>
    <path fill-rule="evenodd" clip-rule="evenodd" d="M17.4688 25.4569L24.365 13.8765L31.4341 25.4569H17.4688Z"
          fill="#0094DD"/>
    <path fill-rule="evenodd" clip-rule="evenodd"
          d="M55.1227 18.7479H58.0014L51.6471 25.6105L58.3725 33.1099H55.2841L49.2601 26.199V33.1099H46.8008V13.2H49.2601V25.2395L55.1227 18.7479ZM68.9706 30.8118C69.0138 30.2472 69.0355 29.5456 69.0355 28.7069V25.7635C68.2825 25.7852 67.729 25.8027 67.3741 25.8162C67.0194 25.8295 66.5219 25.8634 65.8823 25.917C65.2424 25.9708 64.7157 26.0432 64.3017 26.1346C63.8932 26.226 63.5571 26.331 63.2938 26.449C63.0304 26.5674 62.8059 26.7315 62.6203 26.941C62.435 27.1506 62.3033 27.4101 62.2253 27.7194C62.1474 28.0285 62.1084 28.414 62.1084 28.8765C62.1084 29.3764 62.1742 29.7904 62.3059 30.1181C62.4377 30.4462 62.65 30.7028 62.9429 30.8884C63.2361 31.0739 63.5826 31.2028 63.9833 31.2754C64.3836 31.348 64.8875 31.3843 65.4953 31.3843C66.8985 31.3843 68.0569 31.1935 68.9706 30.8118ZM69.1604 19.0787C69.6521 19.2777 70.0622 19.5396 70.3903 19.8649C70.718 20.1901 70.9788 20.6161 71.1721 21.143C71.3658 21.67 71.4628 22.2855 71.4628 22.9896V29.5619C71.4628 30.4221 71.4302 31.2687 71.3658 32.1019C69.8337 32.9032 67.7693 33.3034 65.1727 33.3034C63.2427 33.3034 61.8408 32.9556 60.9673 32.2591C60.0937 31.5632 59.6568 30.4515 59.6568 28.9247C59.6568 27.6399 59.9553 26.6224 60.552 25.8727C61.1487 25.1226 62.0923 24.6481 63.3824 24.4493C64.5005 24.2828 66.3849 24.1508 69.0355 24.0541V23.7073C69.0355 23.1483 68.9775 22.6765 68.8622 22.2921C68.7461 21.9078 68.5542 21.5825 68.2852 21.3164C68.0166 21.0503 67.6564 20.8554 67.2049 20.7317C66.7533 20.6081 66.194 20.5464 65.5276 20.5464C64.1941 20.5464 62.5625 20.6754 60.6326 20.9334L60.4229 19.0625C62.5196 18.7238 64.3287 18.5544 65.8502 18.5544C66.5113 18.5544 67.1051 18.592 67.6323 18.6673C68.159 18.7428 68.6684 18.8799 69.1604 19.0787ZM84.6135 27.0459C84.6002 27.3632 84.5743 27.6897 84.5369 28.0256C84.4993 28.3617 84.4468 28.6506 84.3797 28.8924C84.3124 29.1344 84.2249 29.3777 84.1176 29.6222C84.0102 29.867 83.8784 30.0725 83.7226 30.2392C83.5665 30.4059 83.3825 30.5631 83.1702 30.7108C82.9576 30.8589 82.713 30.9756 82.4362 31.0617C82.1592 31.1479 81.8435 31.2149 81.4888 31.2632C81.1339 31.3117 80.7414 31.3358 80.3114 31.3358C79.8544 31.3358 79.3585 31.2889 78.8236 31.1948C78.2887 31.1007 77.8118 30.984 77.3922 30.8441V23.1913C77.3922 22.4279 77.4163 21.7264 77.4648 21.0866C77.8518 20.9039 78.325 20.7629 78.884 20.6633C79.4433 20.5639 79.9941 20.514 80.5372 20.514C81.0316 20.514 81.4751 20.557 81.8679 20.6431C82.26 20.729 82.599 20.8501 82.8839 21.006C83.1688 21.1619 83.4146 21.3636 83.6218 21.6107C83.8284 21.858 83.9967 22.1243 84.1258 22.409C84.2546 22.694 84.3582 23.0314 84.4359 23.4211C84.5141 23.811 84.5663 24.2006 84.5934 24.5905C84.6202 24.9802 84.6337 25.4279 84.6337 25.9329C84.6337 26.3578 84.627 26.7286 84.6135 27.0459ZM86.1377 20.9132C85.8122 20.3407 85.3838 19.881 84.8513 19.5343C84.3193 19.1874 83.7051 18.9374 83.0088 18.7844C82.3127 18.631 81.4888 18.5544 80.5372 18.5544C79.548 18.5544 78.5707 18.6527 77.6061 18.8489C76.6407 19.045 75.7821 19.3475 75.0294 19.7559C74.9649 20.584 74.9328 21.4306 74.9328 22.2961V38.3999H77.3922V32.8358C78.6502 33.1476 79.8465 33.3034 80.9807 33.3034C82.0882 33.3034 83.0196 33.1786 83.7748 32.9286C84.53 32.6786 85.1619 32.2646 85.67 31.6865C86.1779 31.1089 86.5461 30.3521 86.7746 29.4165C87.0031 28.4813 87.1174 27.32 87.1174 25.9329C87.1174 24.8042 87.0354 23.8282 86.8714 23.0057C86.7073 22.1834 86.4629 21.4858 86.1377 20.9132ZM98.7524 26.5136C98.9915 26.7286 99.1664 26.9571 99.2764 27.1991C99.3867 27.4411 99.4821 27.73 99.5629 28.0659C99.6433 28.402 99.6838 28.7715 99.6838 29.1747C99.6838 29.8039 99.5911 30.3601 99.4055 30.8441C99.22 31.3279 98.966 31.7228 98.6434 32.0293C98.3209 32.3359 97.9219 32.5859 97.4459 32.7794C96.9703 32.9729 96.4648 33.1086 95.9299 33.1865C95.3948 33.2643 94.7996 33.3034 94.1436 33.3034C92.4716 33.3034 90.8885 33.1314 89.3941 32.7874L89.6361 30.8926C91.0283 31.1397 92.2781 31.2632 93.3858 31.2632H93.9019C94.0148 31.2632 94.1934 31.2566 94.4381 31.2431C94.6827 31.2298 94.8736 31.2123 95.0106 31.1908C95.1477 31.1693 95.3264 31.137 95.5469 31.0941C95.7672 31.0509 95.9421 30.9971 96.071 30.9327C96.2 30.8682 96.3426 30.7848 96.4985 30.6827C96.6544 30.5806 96.7752 30.4664 96.8614 30.34C96.9473 30.2138 97.0197 30.0605 97.079 29.8803C97.1383 29.7003 97.1678 29.5026 97.1678 29.2876C97.1678 29.0671 97.1437 28.8643 97.0952 28.6788C97.0467 28.4934 96.9849 28.3334 96.9096 28.199C96.8344 28.0646 96.727 27.9397 96.587 27.8239C96.4471 27.7086 96.3129 27.6116 96.1839 27.5339C96.055 27.4559 95.8841 27.3765 95.6718 27.2956C95.4594 27.2153 95.2686 27.1493 95.0994 27.0984C94.9301 27.0472 94.7109 26.9813 94.4421 26.9007C94.2377 26.8418 94.0819 26.7959 93.9743 26.7636C92.91 26.441 92.1844 26.1939 91.797 26.0219C90.8456 25.5973 90.1951 25.0271 89.8457 24.3122C89.5984 23.807 89.4747 23.2021 89.4747 22.4978C89.4747 21.8958 89.5579 21.3662 89.7246 20.9092C89.8913 20.4523 90.1198 20.0759 90.4101 19.7803C90.7004 19.4847 91.0606 19.2438 91.4908 19.0585C91.9207 18.873 92.3779 18.7428 92.8615 18.6673C93.3455 18.592 93.8884 18.5544 94.4906 18.5544C96.173 18.5544 97.7968 18.7266 99.3612 19.0707L99.1274 20.9252C97.7833 20.6781 96.5844 20.5543 95.5307 20.5543C95.2619 20.5543 95.0443 20.5559 94.8776 20.5583C94.7109 20.5612 94.4877 20.5745 94.2083 20.5986C93.9286 20.623 93.6975 20.6566 93.5146 20.6994C93.332 20.7425 93.1318 20.8072 92.914 20.8931C92.6963 20.9792 92.5243 21.0839 92.3979 21.2075C92.2714 21.3312 92.1641 21.4871 92.0753 21.6753C91.9867 21.8635 91.9424 22.0785 91.9424 22.3205C91.9424 22.5299 91.9692 22.7237 92.023 22.901C92.0766 23.0786 92.1397 23.2316 92.2123 23.3606C92.2852 23.4897 92.3965 23.6135 92.5471 23.7317C92.6976 23.8499 92.8294 23.944 92.9421 24.0138C93.0552 24.0837 93.2246 24.1617 93.4502 24.2478C93.676 24.3337 93.8547 24.3984 93.9864 24.4413C94.1182 24.4843 94.3199 24.5458 94.5913 24.6266C94.8628 24.7072 95.0656 24.7692 95.2002 24.8122C95.6839 24.9682 96.0535 25.0902 96.309 25.179C96.5642 25.2676 96.8789 25.39 97.2524 25.5459C97.6261 25.702 97.9097 25.8483 98.1032 25.9854C98.2967 26.1226 98.513 26.2987 98.7524 26.5136ZM108.403 28.9894L104.105 18.7479H101.476L107.282 32.1183L105.081 38.4H107.589L114.274 18.7479H111.766L108.403 28.9894ZM125.787 27.1991C125.897 27.4411 125.993 27.73 126.074 28.0659C126.154 28.402 126.195 28.7715 126.195 29.1747C126.195 29.8039 126.102 30.3601 125.916 30.8441C125.731 31.3279 125.477 31.7228 125.154 32.0293C124.832 32.3359 124.433 32.5859 123.957 32.7794C123.481 32.9729 122.976 33.1086 122.441 33.1865C121.906 33.2643 121.31 33.3034 120.654 33.3034C118.983 33.3034 117.399 33.1314 115.905 32.7874L116.147 30.8926C117.539 31.1397 118.789 31.2632 119.897 31.2632H120.413C120.525 31.2632 120.704 31.2566 120.949 31.2431C121.193 31.2298 121.384 31.2123 121.521 31.1908C121.659 31.1693 121.837 31.137 122.058 31.0941C122.278 31.0509 122.453 30.9971 122.582 30.9327C122.711 30.8682 122.853 30.7848 123.009 30.6827C123.165 30.5806 123.286 30.4664 123.372 30.34C123.458 30.2138 123.531 30.0605 123.59 29.8803C123.649 29.7003 123.679 29.5026 123.679 29.2876C123.679 29.0671 123.654 28.8643 123.606 28.6788C123.558 28.4934 123.496 28.3334 123.421 28.199C123.345 28.0646 123.238 27.9397 123.098 27.8239C122.958 27.7086 122.824 27.6116 122.695 27.5339C122.566 27.4559 122.395 27.3765 122.183 27.2956C121.97 27.2153 121.779 27.1493 121.61 27.0984C121.441 27.0472 121.222 26.9813 120.953 26.9007C120.748 26.8418 120.593 26.7959 120.485 26.7636C119.421 26.441 118.695 26.1939 118.308 26.0219C117.356 25.5973 116.706 25.0271 116.356 24.3122C116.109 23.807 115.985 23.2021 115.985 22.4978C115.985 21.8958 116.069 21.3662 116.235 20.9092C116.402 20.4523 116.631 20.0759 116.921 19.7803C117.211 19.4847 117.572 19.2438 118.001 19.0585C118.431 18.873 118.889 18.7428 119.372 18.6673C119.856 18.592 120.399 18.5544 121.001 18.5544C122.684 18.5544 124.308 18.7266 125.872 19.0707L125.638 20.9252C124.294 20.6781 123.095 20.5543 122.041 20.5543C121.773 20.5543 121.555 20.5559 121.388 20.5583C121.222 20.5612 120.998 20.5745 120.719 20.5986C120.44 20.623 120.208 20.6566 120.026 20.6994C119.843 20.7425 119.643 20.8072 119.425 20.8931C119.207 20.9792 119.035 21.0839 118.909 21.2075C118.782 21.3312 118.675 21.4871 118.586 21.6753C118.497 21.8635 118.453 22.0785 118.453 22.3205C118.453 22.5299 118.48 22.7237 118.534 22.901C118.587 23.0786 118.651 23.2316 118.723 23.3606C118.796 23.4897 118.907 23.6135 119.058 23.7317C119.208 23.8499 119.34 23.944 119.453 24.0138C119.566 24.0837 119.735 24.1617 119.961 24.2478C120.187 24.3337 120.366 24.3984 120.497 24.4413C120.629 24.4843 120.831 24.5458 121.102 24.6266C121.373 24.7072 121.576 24.7692 121.711 24.8122C122.195 24.9682 122.564 25.0902 122.82 25.179C123.075 25.2676 123.39 25.39 123.763 25.5459C124.137 25.702 124.42 25.8483 124.614 25.9854C124.807 26.1226 125.024 26.2987 125.263 26.5136C125.502 26.7286 125.677 26.9571 125.787 27.1991Z"
          fill="currentColor"/>
</svg>
