<svg xmlns="http://www.w3.org/2000/svg" width="396" height="203.51259324538876" viewBox="0 0 350 179.8722415047628"
     fill="currentColor">
    <defs></defs>
    <g transform="matrix(1.4957264957264955,0,0,1.4957264957264955,100.52136752136752,-7.478632478632478)">
        <path d="M50,5C25.1,5,5,25.1,5,50s20.1,45,45,45s45-20.1,45-45S74.9,5,50,5z M65.1,59.3l9.4-9.4L65,40.6c-0.5-0.4-0.7-1-0.7-1.6c0-0.7,0.3-1.3,0.8-1.9c0.4-0.5,1-0.7,1.6-0.7c0,0,0,0,0.1,0c0.7,0,1.3,0.3,1.8,0.8L81.4,50L68.5,62.9c-0.9,0.9-2.5,0.9-3.5,0l0,0c-0.4-0.4-0.7-1-0.7-1.6C64.3,60.6,64.5,59.9,65.1,59.3z M44,69.7c-0.2,0-0.5-0.1-0.8-0.2c-1.2-0.4-1.9-1.8-1.5-3.2l12-34.4l0,0c0.2-0.6,0.6-1.1,1.2-1.4c0.3-0.2,0.7-0.2,1-0.2c0.3,0,0.6,0.1,0.9,0.2c1.2,0.4,1.9,1.8,1.5,3.2L46.3,68C46,69,45,69.7,44,69.7z M34.9,40.6L25.6,50l9.4,9.4c0.5,0.4,0.7,1,0.7,1.6c0,0.7-0.3,1.3-0.8,1.8c-0.5,0.5-1.1,0.8-1.7,0.8c-0.6,0-1.3-0.3-1.7-0.8L18.6,50l12.9-12.9c0.4-0.5,1-0.7,1.6-0.7c0.7,0,1.3,0.3,1.9,0.8c0.5,0.4,0.7,1,0.7,1.6C35.7,39.5,35.4,40.1,34.9,40.6z"></path>
    </g>
    <g transform="matrix(0.9980836008149461,0,0,0.9980836008149461,-1.0779303317132432,139.7093557327192)"
       fill="currentColor">
        <path d="M1.08 39.4 l0 -5.64 c0.48 0.12 1.08 0.24 1.76 0.32 c0.68 0.12 1.4 0.2 2.16 0.24 s1.52 0.08 2.32 0.12 s1.56 0.08 2.24 0.08 c1.88 0 3.2 -0.12 4 -0.32 c0.76 -0.2 1.16 -0.56 1.16 -1.12 c0 -0.48 -0.36 -0.84 -0.72 -1.12 c-1.32 -0.88 -2.88 -1.24 -4.44 -1.6 c-4.4 -0.88 -8.44 -2.64 -8.44 -7.68 c0 -5.96 5.64 -7.36 10.48 -7.36 c2.68 0 5.4 0.28 8 0.92 l0 5.64 c-0.4 -0.12 -0.92 -0.2 -1.56 -0.32 c-0.68 -0.08 -1.36 -0.16 -2.12 -0.24 c-1.56 -0.16 -3.04 -0.24 -4.6 -0.24 c-0.88 0 -2.72 0 -3.56 0.32 c-0.56 0.2 -0.92 0.44 -0.92 1.08 c0 0.32 0.08 0.6 0.24 0.84 c0.16 0.28 0.44 0.48 0.8 0.68 c1.08 0.6 2.48 0.96 3.68 1.24 c1 0.24 2 0.52 3.04 0.8 c3.52 0.96 5.84 2.92 5.84 6.68 c0 6.2 -6.16 7.52 -11.12 7.52 c-2.72 0 -5.56 -0.2 -8.24 -0.84 z M28.696 15.52 l20.4 0 l0 5.56 l-7.2 0 l0 18.92 l-6 0 l0 -18.92 l-7.2 0 l0 -5.56 z M73.75200000000001 35.04 l-9 0 l-1.76 4.96 l-6.52 0 l9.8 -24.48 l6 0 l9.8 24.48 l-6.56 0 z M66.712 29.48 l5.08 0 l-2.52 -7.12 z M106.488 15.52 l6 0 l0 24.48 l-6 0 l-9.6 -14.32 l0 14.32 l-6 0 l0 -24.48 l6 0 l9.6 14.32 l0 -14.32 z M123.42399999999999 15.52 l6 0 l0 24.48 l-6 0 l0 -24.48 z M139.12 39.4 l0 -5.64 c0.48 0.12 1.08 0.24 1.76 0.32 c0.68 0.12 1.4 0.2 2.16 0.24 s1.52 0.08 2.32 0.12 s1.56 0.08 2.24 0.08 c1.88 0 3.2 -0.12 4 -0.32 c0.76 -0.2 1.16 -0.56 1.16 -1.12 c0 -0.48 -0.36 -0.84 -0.72 -1.12 c-1.32 -0.88 -2.88 -1.24 -4.44 -1.6 c-4.4 -0.88 -8.44 -2.64 -8.44 -7.68 c0 -5.96 5.64 -7.36 10.48 -7.36 c2.68 0 5.4 0.28 8 0.92 l0 5.64 c-0.4 -0.12 -0.92 -0.2 -1.56 -0.32 c-0.68 -0.08 -1.36 -0.16 -2.12 -0.24 c-1.56 -0.16 -3.04 -0.24 -4.6 -0.24 c-0.88 0 -2.72 0 -3.56 0.32 c-0.56 0.2 -0.92 0.44 -0.92 1.08 c0 0.32 0.08 0.6 0.24 0.84 c0.16 0.28 0.44 0.48 0.8 0.68 c1.08 0.6 2.48 0.96 3.68 1.24 c1 0.24 2 0.52 3.04 0.8 c3.52 0.96 5.84 2.92 5.84 6.68 c0 6.2 -6.16 7.52 -11.12 7.52 c-2.72 0 -5.56 -0.2 -8.24 -0.84 z M186.37599999999998 34.44 l0 5.56 l-18.2 0 l0 -24.48 l6 0 l0 18.92 l12.2 0 z M210.952 35.04 l-9 0 l-1.76 4.96 l-6.52 0 l9.8 -24.48 l6 0 l9.8 24.48 l-6.56 0 z M203.912 29.48 l5.08 0 l-2.52 -7.12 z M242.72799999999998 15.52 l6.56 0 l-9.8 24.48 l-6 0 l-9.8 -24.48 l6.52 0 l6.28 17.64 z M291.6 34.44 l0 5.56 l-18.2 0 l0 -24.48 l6 0 l0 18.92 l12.2 0 z M307.536 40 l0 -9.08 c-4.84 -1.08 -7.64 -5.08 -7.64 -9.88 l0 -5.52 l6 0 l0 5.52 c0 2.88 1.72 4.64 4.6 4.64 c2.96 0 4.6 -1.72 4.6 -4.64 l0 -5.52 l6 0 l0 5.52 c0 4.88 -2.84 8.76 -7.56 9.88 l0 9.08 l-6 0 z M345.752 15.52 l6 0 l0 14.48 c0 6.36 -4.56 10.2 -10.6 10.2 c-6.2 0 -10.6 -4.08 -10.6 -10.2 l0 -14.48 l6 0 l0 14.48 c0 2.88 1.72 4.64 4.6 4.64 c2.96 0 4.6 -1.72 4.6 -4.64 l0 -14.48 z"></path>
    </g>
</svg>
