<svg fill="none" height="31" viewBox="0 0 124 31" width="124" xmlns="http://www.w3.org/2000/svg"><g clip-rule="evenodd" fill-rule="evenodd"><path d="m86.3671 16.4693c0 3.5066-2.4933 5.8884-5.452 5.8884-1.4628 0-2.6263-.4631-3.4574-1.2902v.9594h-3.5571v-17.03667h3.5571v6.88087c.8311-.8271 1.9946-1.2902 3.4574-1.2902 2.9254-.0331 5.452 2.4149 5.452 5.8884zm-3.5239 0c0-1.7202-1.1303-2.878-2.6928-2.878-1.4295 0-2.726 1.1578-2.726 2.878s1.2965 2.8781 2.726 2.8781c1.5625 0 2.6928-1.1909 2.6928-2.8781zm-43.8135 1.9518c.1662.9593 1.0305 1.2901 1.9946 1.2901.9308 0 1.4295-.3969 1.4295-.8931 0-.3639-.2992-.6617-1.097-.8271l-2.2606-.43c-2.0612-.3639-3.2579-1.4887-3.2579-3.242 0-2.2825 1.9946-3.7712 4.7871-3.7712s4.6209 1.2571 5.0863 3.1758l-3.2579.6285c-.0997-.6947-.7646-1.2901-1.8617-1.2901-.964 0-1.2632.4631-1.2632.8601 0 .2977.133.6285.8311.7608l2.6262.5293c2.1277.4301 3.0917 1.7202 3.0917 3.3412 0 2.448-2.1276 3.7381-5.0863 3.7381-2.6263 0-4.8536-.9593-5.2525-3.2419zm57.0442 3.5727h3.3576v-11.0821h-3.3576v.8932c-.8311-.7939-1.9282-1.224-3.2912-1.224-2.8257 0-5.186 2.4149-5.186 5.8884 0 3.5397 2.3935 5.8884 5.186 5.8884 1.363 0 2.4601-.4631 3.2912-1.224zm-2.5903-8.4026c1.363 0 2.593 1.1909 2.593 2.8781 0 1.6871-1.1968 2.878-2.593 2.878-1.4628 0-2.5266-1.1578-2.5266-2.878s1.0638-2.8781 2.5266-2.8781zm-34.9058 3.8044h-8.178c.2992 1.3232 1.1968 2.1502 2.3936 2.1502.8311 0 1.7951-.1985 2.3935-1.2901l3.1582.6285c-.9641 2.3488-2.992 3.4735-5.5517 3.4735-3.2247 0-5.8842-2.3818-5.8842-5.8884s2.6595-5.8884 5.9174-5.8884c3.1582 0 5.6847 2.2495 5.7512 5.8884zm-8.1145-2.2165h4.5876c-.3324-1.1909-1.23-1.7532-2.2605-1.7532-.9641.033-1.9947.6616-2.3271 1.7532zm15.4316 7.1456c3.3244 0 6.1169-2.3488 6.1169-5.8553 0-3.4735-2.7925-5.8223-6.1169-5.8554-3.3909 0-6.1834 2.3488-6.1834 5.8554 0 3.5065 2.7925 5.8553 6.1834 5.8553zm.0028-8.7333c1.3963 0 2.6928 1.1579 2.6928 2.8781 0 1.7533-1.3298 2.878-2.6928 2.878-1.4627 0-2.7592-1.1247-2.7592-2.878 0-1.7202 1.3297-2.8781 2.7592-2.8781zm38.4253 4.8297c.167.9593 1.031 1.2901 1.995 1.2901.931 0 1.43-.3969 1.43-.8931 0-.3639-.3-.6617-1.097-.8271l-2.261-.43c-2.061-.3639-3.258-1.4887-3.258-3.242 0-2.2825 1.995-3.7712 4.787-3.7712 2.793 0 4.621 1.2571 5.086 3.1758l-3.257.6285c-.1-.6947-.765-1.2901-1.862-1.2901-.964 0-1.263.4631-1.263.8601 0 .2977.133.6285.831.7608l2.626.5293c2.128.4301 3.092 1.7202 3.092 3.3412 0 2.448-2.128 3.7381-5.087 3.7381-2.626 0-4.853-.9593-5.252-3.2419zm19.612-1.0255h-8.178c.299 1.3232 1.197 2.1502 2.393 2.1502.831 0 1.796-.1985 2.394-1.2901l3.158.6285c-.964 2.3488-2.992 3.4735-5.552 3.4735-3.224 0-5.884-2.3818-5.884-5.8884s2.66-5.8884 5.918-5.8884c3.158 0 5.684 2.2495 5.751 5.8884zm-8.115-2.2165h4.588c-.332-1.1909-1.23-1.7532-2.261-1.7532-.964.033-1.994.6616-2.327 1.7532z" fill="#fff"/><path d="m14.1366 8.60079c0-1.18533.0088-2.36191.0175-3.53413.0087-1.16357.0173-2.32285.0173-3.48212-4.77021 0-9.4708 0-14.1365808-.03474 0 3.53853-.0086835 7.07706-.0173777 10.6199-.0087154 3.5515-.0174415 7.1074-.0174415 10.672h14.1366c0 1.1897-.0088 2.3795-.0176 3.5604-.0086 1.1634-.0172 2.3182-.0172 3.4558h.0008c4.8048 0 9.5051 0 14.2054.0348 0-7.0163 0-14.102.0349-21.29191zm-.0691 7.01641h-6.92902c0-2.2925 0-4.6196.03482-6.91207h6.929c-.0348 2.32717-.0348 4.65437-.0348 6.91207zm.1065 7.1206c2.3329.0347 4.6658.0347 6.9639.0347.0348-2.2924.0348-4.6196 0-6.9815h-6.9639z" fill="#2973db"/></g></svg>